<?xml version="1.0" encoding="UTF-8" standalone="no"?>
<svg
   xmlns:dc="http://purl.org/dc/elements/1.1/"
   xmlns:cc="http://creativecommons.org/ns#"
   xmlns:rdf="http://www.w3.org/1999/02/22-rdf-syntax-ns#"
   xmlns:svg="http://www.w3.org/2000/svg"
   xmlns="http://www.w3.org/2000/svg"
   xmlns:sodipodi="http://sodipodi.sourceforge.net/DTD/sodipodi-0.dtd"
   xmlns:inkscape="http://www.inkscape.org/namespaces/inkscape"
   width="28.38699mm"
   height="16.114487mm"
   viewBox="0 0 28.386989 16.114486"
   version="1.1"
   id="svg8"
   inkscape:version="1.0.1 (3bc2e813f5, 2020-09-07)"
   sodipodi:docname="thought_bubble.svg">
  <defs
     id="defs2" />
  <sodipodi:namedview
     id="base"
     pagecolor="#ffffff"
     bordercolor="#666666"
     borderopacity="1.0"
     inkscape:pageopacity="0.0"
     inkscape:pageshadow="2"
     inkscape:zoom="1"
     inkscape:cx="-273.55759"
     inkscape:cy="-169.51614"
     inkscape:document-units="mm"
     inkscape:current-layer="layer1"
     inkscape:document-rotation="0"
     showgrid="false"
     inkscape:window-width="1566"
     inkscape:window-height="1030"
     inkscape:window-x="128"
     inkscape:window-y="0"
     inkscape:window-maximized="0" />
  <metadata
     id="metadata5">
    <rdf:RDF>
      <cc:Work
         rdf:about="">
        <dc:format>image/svg+xml</dc:format>
        <dc:type
           rdf:resource="http://purl.org/dc/dcmitype/StillImage" />
        <dc:title></dc:title>
      </cc:Work>
    </rdf:RDF>
  </metadata>
  <g
     inkscape:label="Layer 1"
     inkscape:groupmode="layer"
     id="layer1"
     transform="translate(-163.58626,-232.08449)">
    <path
       style="fill:#000000;stroke-width:0.0793133"
       d="m 163.91338,248.15486 c -0.10517,-0.0706 -0.0736,-0.31452 0.0516,-0.39858 0.33664,-0.22599 0.96238,0.0984 0.66063,0.3425 -0.12357,0.1 -0.59197,0.13683 -0.71226,0.0561 z m 0.42952,-0.23587 c -0.12424,-0.0834 -0.25023,-0.0189 -0.15825,0.081 0.0356,0.0387 0.10913,0.052 0.16333,0.0295 0.0661,-0.0274 0.0644,-0.0638 -0.005,-0.11045 z m 1.03281,-0.48438 c -0.36915,-0.28222 -0.27915,-0.71271 0.17825,-0.85262 0.34752,-0.10629 0.55865,-0.091 0.84706,0.0613 0.32541,0.17184 0.35748,0.57637 0.0615,0.7751 -0.24896,0.16714 -0.8771,0.17653 -1.08676,0.0162 z m 0.92877,-0.21866 c 0.15743,-0.15089 0.11574,-0.30582 -0.11604,-0.43119 -0.23546,-0.12736 -0.48155,-0.0959 -0.65708,0.0839 -0.12906,0.13222 -0.13956,0.19695 -0.0527,0.32492 0.14156,0.20857 0.61807,0.22148 0.82582,0.0224 z m 1.4164,-0.69194 c -0.45819,-0.16571 -0.80288,-0.60971 -0.73913,-0.95208 0.0918,-0.49319 0.67966,-0.84293 1.41674,-0.84293 1.37743,0 1.9631,1.18975 0.85422,1.73529 -0.37345,0.18373 -1.10959,0.21243 -1.53183,0.0597 z m 1.25456,-0.1867 c 0.84289,-0.33426 0.72556,-1.13384 -0.20432,-1.39242 -0.56161,-0.15617 -1.3379,0.13757 -1.49844,0.56698 -0.089,0.23799 0.0443,0.47864 0.39583,0.71461 0.37179,0.24959 0.85392,0.29047 1.30693,0.11083 z m 10.03969,-0.77476 c -0.77871,-0.11748 -1.55173,-0.3373 -2.16795,-0.61649 l -0.44381,-0.20108 -0.75013,0.23019 c -0.93903,0.28817 -1.40021,0.36009 -2.32177,0.36209 -0.88695,0.002 -1.67572,-0.12862 -2.44916,-0.40537 -1.1851,-0.42404 -1.97577,-1.07499 -2.48719,-2.04769 l -0.25921,-0.49301 -1.00612,-0.006 c -1.20098,-0.007 -1.6544,-0.11972 -2.41622,-0.5981 -1.76297,-1.10705 -1.41083,-2.93763 0.72544,-3.77115 0.44308,-0.17288 0.48584,-0.21239 0.60226,-0.55651 0.40682,-1.20252 1.82198,-2.02837 3.61736,-2.11098 0.69196,-0.0318 0.77992,-0.0505 0.81228,-0.17256 0.19201,-0.72407 0.27307,-0.92388 0.50818,-1.25274 0.40203,-0.5623 1.47287,-1.26185 2.36892,-1.54752 1.26456,-0.40315 2.93641,-0.38637 4.24655,0.0426 0.83936,0.27484 1.77987,0.91265 2.25949,1.53227 0.20058,0.25913 0.41975,0.47114 0.48705,0.47114 0.0673,0 0.35475,-0.0463 0.6388,-0.10296 0.3701,-0.0738 0.80714,-0.0968 1.54219,-0.0812 0.91647,0.0194 1.09541,0.0439 1.67995,0.22978 0.75056,0.23868 1.62146,0.75997 1.98508,1.18821 0.4385,0.51644 0.4076,0.50606 1.40479,0.47202 0.74306,-0.0254 0.99689,-0.007 1.51392,0.11097 2.89127,0.65838 3.80639,2.98641 1.76903,4.50033 -0.79506,0.59078 -1.61109,0.83159 -3.00942,0.88805 l -1.00641,0.0406 -0.16876,0.56062 c -0.46755,1.55311 -2.18362,2.81459 -4.44927,3.27065 -0.76824,0.15464 -2.40939,0.18723 -3.22587,0.0641 z m 3.15557,-0.24941 c 2.36957,-0.50751 4.03507,-1.84954 4.37386,-3.52437 l 0.0674,-0.33334 1.12993,-0.0287 c 0.99374,-0.0252 1.19994,-0.0512 1.71074,-0.21503 1.12278,-0.36022 1.96002,-1.11157 2.1987,-1.97316 0.28779,-1.03889 -0.66278,-2.20275 -2.21733,-2.71487 -0.51035,-0.16812 -0.66481,-0.18616 -1.67538,-0.19571 -0.61227,-0.006 -1.16574,-0.0131 -1.22994,-0.0162 -0.0642,-0.003 -0.2924,-0.20766 -0.50711,-0.45446 -0.90544,-1.04077 -2.61137,-1.6227 -4.2378,-1.44561 -0.3608,0.0393 -0.843,0.1078 -1.07154,0.15225 -0.54768,0.10651 -0.65633,0.0551 -1.13328,-0.53636 -0.52475,-0.65073 -1.29082,-1.15409 -2.23135,-1.46615 -0.69411,-0.23029 -0.82685,-0.25129 -1.72867,-0.27344 -1.51816,-0.0373 -2.46259,0.22036 -3.55889,0.97087 -0.67797,0.46413 -1.09062,1.02616 -1.25951,1.71547 l -0.12725,0.51939 -0.82281,0.0347 c -1.82392,0.077 -3.20973,0.88831 -3.57842,2.09489 -0.11033,0.36109 -0.13292,0.38128 -0.60685,0.54251 -0.69442,0.23623 -1.37284,0.72501 -1.58806,1.14414 -0.25237,0.49147 -0.23706,1.22779 0.0338,1.62518 0.26853,0.394 1.06298,0.92764 1.65121,1.10914 0.36723,0.1133 0.65535,0.14312 1.44987,0.15004 0.58446,0.005 1.04648,0.0392 1.12534,0.0832 0.0736,0.041 0.18967,0.21288 0.25798,0.38198 0.31753,0.78603 1.06232,1.50047 2.00038,1.91884 1.62415,0.72436 3.30515,0.77405 5.13438,0.15177 0.63079,-0.21458 0.72089,-0.21347 1.21781,0.015 1.18071,0.54291 2.20948,0.73667 3.69587,0.69609 0.58564,-0.016 1.27275,-0.0736 1.52691,-0.12805 z"
       id="path847-2" />
  </g>
</svg>
