<?xml version="1.0" encoding="UTF-8" standalone="no"?>
<svg
   xmlns:dc="http://purl.org/dc/elements/1.1/"
   xmlns:cc="http://creativecommons.org/ns#"
   xmlns:rdf="http://www.w3.org/1999/02/22-rdf-syntax-ns#"
   xmlns:svg="http://www.w3.org/2000/svg"
   xmlns="http://www.w3.org/2000/svg"
   xmlns:sodipodi="http://sodipodi.sourceforge.net/DTD/sodipodi-0.dtd"
   xmlns:inkscape="http://www.inkscape.org/namespaces/inkscape"
   viewBox="0 0 22 20"
   version="1.1"
   id="svg28"
   sodipodi:docname="sub.svg"
   inkscape:version="1.0.1 (3bc2e813f5, 2020-09-07)">
  <metadata
     id="metadata32">
    <rdf:RDF>
      <cc:Work
         rdf:about="">
        <dc:format>image/svg+xml</dc:format>
        <dc:type
           rdf:resource="http://purl.org/dc/dcmitype/StillImage" />
      </cc:Work>
    </rdf:RDF>
  </metadata>
  <sodipodi:namedview
     pagecolor="#ffffff"
     bordercolor="#666666"
     borderopacity="1"
     objecttolerance="10"
     gridtolerance="10"
     guidetolerance="10"
     inkscape:pageopacity="0"
     inkscape:pageshadow="2"
     inkscape:window-width="1920"
     inkscape:window-height="1001"
     id="namedview30"
     showgrid="false"
     inkscape:zoom="41.5"
     inkscape:cx="11"
     inkscape:cy="10"
     inkscape:window-x="-9"
     inkscape:window-y="-9"
     inkscape:window-maximized="1"
     inkscape:current-layer="g26" />
  <defs
     id="defs12">
    <linearGradient
       id="b"
       x1="303.47"
       x2="303.56"
       y1="267.8"
       y2="248.16"
       gradientTransform="matrix(.56568 0 0 .94044 167.93 -61.249)"
       gradientUnits="userSpaceOnUse">
      <stop
         stop-color="#808080"
         offset="0"
         id="stop2" />
      <stop
         stop-color="#b2b2b2"
         offset="1"
         id="stop4" />
    </linearGradient>
    <linearGradient
       id="a"
       x1="301.15"
       x2="289.75"
       y1="176.16"
       y2="187.84"
       gradientTransform="matrix(0 -1 1 0 158.75 477.53)"
       gradientUnits="userSpaceOnUse">
      <stop
         stop-color="#2f2f2f"
         offset="0"
         id="stop7" />
      <stop
         stop-color="#a9a9a9"
         offset="1"
         id="stop9" />
    </linearGradient>
  </defs>
  <g
     transform="translate(-328.56 -171.03)"
     id="g26">
    <path
       d="m329.49574,171.53207h20.14264a.42857,.89061 0 0,1 .42857.89061v17.21855a.42857,.89061 0 0,1 -.42857.89061h-20.14264a.42857,.89061 0 0,1 -.42857-.89061v-17.21855a.42857,.89061 0 0,1 .42857-.89061"
       fill="#eee"
       stroke="url(#b)"
       stroke-width="1.0002"
       id="path14" />
    <path
       d="m335.56 180h9v3h-9z"
       fill="#f8f8f8"
       id="path16" />
    <path
       d="m 334.62,178.91 v 3 c 5.802,-0.0428 1.71574,0 9,0 v -3 c -3.2673,0 -5.79016,0 -9,0 z"
       fill="url(#a)"
       id="path20"
       sodipodi:nodetypes="ccccc" />
    <path
       d="m330.02 190.03 0.0335-17.5 19.531-0.0112"
       fill="none"
       stroke="#fff"
       id="path22" />
    <path
       d="m349.06 173.03-2e-3 16.469-19.563 0.0112"
       fill="none"
       stroke="#cacaca"
       id="path24" />
  </g>
</svg>
